<?xml version="1.0" encoding="utf-8"?>
<!-- Generator: Adobe Illustrator 23.0.3, SVG Export Plug-In . SVG Version: 6.00 Build 0)  -->
<svg version="1.1" id="Icons" xmlns="http://www.w3.org/2000/svg" xmlns:xlink="http://www.w3.org/1999/xlink" x="0px" y="0px"
	 viewBox="0 0 32 32" style="enable-background:new 0 0 32 32;" xml:space="preserve">
<path d="M30.9,5.6C30.8,5.2,30.4,5,30,5h-3V2c0-0.4-0.2-0.8-0.6-0.9C26,0.9,25.6,1,25.3,1.3l-4,4C21.1,5.5,21,5.7,21,6v3.6l-5.7,5.7
	c-0.4,0.4-0.4,1,0,1.4c0.2,0.2,0.5,0.3,0.7,0.3s0.5-0.1,0.7-0.3l5.7-5.7H26c0.3,0,0.5-0.1,0.7-0.3l4-4C31,6.4,31.1,6,30.9,5.6z"/>
<path d="M18.1,18.1C17.6,18.7,16.8,19,16,19s-1.6-0.3-2.1-0.9c-1.2-1.2-1.2-3.1,0-4.2l2.8-2.8C16.5,11,16.2,11,16,11
	c-2.8,0-5,2.2-5,5s2.2,5,5,5s5-2.2,5-5c0-0.2,0-0.5-0.1-0.7L18.1,18.1z"/>
<path d="M28.1,12.1C27.6,12.7,26.8,13,26,13h-2.8l-0.7,0.7c0.3,0.7,0.4,1.5,0.4,2.3c0,3.9-3.1,7-7,7s-7-3.1-7-7s3.1-7,7-7
	c0.8,0,1.6,0.2,2.3,0.4L19,8.8V6c0-0.8,0.3-1.6,0.9-2.1l1-1C19.3,2.3,17.7,2,16,2C8.3,2,2,8.3,2,16s6.3,14,14,14s14-6.3,14-14
	c0-1.7-0.3-3.3-0.9-4.9L28.1,12.1z"/>
</svg>
