<?xml version="1.0" encoding="utf-8"?>
<!-- Generator: Adobe Illustrator 23.0.3, SVG Export Plug-In . SVG Version: 6.00 Build 0)  -->
<svg version="1.1" id="Icons" xmlns="http://www.w3.org/2000/svg" xmlns:xlink="http://www.w3.org/1999/xlink" x="0px" y="0px"
	 viewBox="0 0 32 32" style="enable-background:new 0 0 32 32;" xml:space="preserve">
<style type="text/css">
	.st0{fill:#FFFFFF;}
</style>
<path d="M30.3,17.4c0-0.1,0-0.2,0-0.3l-3.6-9.7C26.2,6,25.1,5.2,23.7,5c-1.4-0.2-2.7,0.3-3.5,1.4c-0.3,0.4-0.2,1.1,0.2,1.4
	c0.4,0.3,1.1,0.2,1.4-0.2c0.4-0.5,1-0.8,1.6-0.7C24.1,7,24.6,7.4,24.8,8l2.4,6.6c-1-0.4-2.1-0.7-3.2-0.7c-3.1,0-5.8,1.8-6.7,4.2
	c-0.9-0.2-1.8-0.2-2.7,0C13.8,15.8,11.1,14,8,14c-1.2,0-2.3,0.2-3.2,0.7L7.2,8c0.2-0.6,0.7-1,1.4-1.1c0.6-0.1,1.2,0.2,1.6,0.7
	c0.3,0.4,1,0.5,1.4,0.2s0.5-1,0.2-1.4C11,5.3,9.7,4.8,8.3,5C6.9,5.2,5.8,6,5.3,7.3l-3.6,9.7c0,0.1,0,0.2,0,0.3C1.3,18.2,1,19.1,1,20
	c0,3.3,3.1,6,7,6c3.8,0,6.9-2.6,7-5.8c0.7-0.2,1.4-0.2,2,0c0.1,3.2,3.2,5.8,7,5.8c3.9,0,7-2.7,7-6C31,19.1,30.7,18.2,30.3,17.4z"/>
</svg>
